<svg id="Layer_1" data-name="Layer 1" xmlns="http://www.w3.org/2000/svg" viewBox="0 0 1918.76 2539.6"><defs><style>.cls-1{fill:#f6f6f6;}</style></defs><circle class="cls-1" cx="433.82" cy="98.91" r="98.88"/><path class="cls-1" d="M1272.65,677.28c-34.57,12.42-59.62,36.55-66.62,61l-149.85,53.84c-20.94-14.37-55.61-17.05-90.18-4.63s-59.62,36.55-66.63,61l-61,21.9-30.57-85.08,585.39-210.32L1423.8,660l-61,21.9C1341.9,667.53,1307.22,664.86,1272.65,677.28Z" transform="translate(-540.62 -230.2)"/><path class="cls-1" d="M1154.54,756.74l-46.87,16.84c-11.62-23.35-24.28-51.33-37.35-82.64q-3-7.07-5.92-14.37c-11.59-28.38-23.41-59.17-35-91.51-18.37-51.15-33.9-99.61-45.7-141.64q-2.24-7.94-4.28-15.53C959.44,353.78,952.38,303,963.62,299s38.11,39.62,69.88,109.48q3.26,7.19,6.58,14.7c17.64,39.93,36.51,87.2,54.88,138.34,11.62,32.35,22.09,63.62,31.22,92.89q2.35,7.51,4.57,14.85C1140.59,701.7,1148.64,731.34,1154.54,756.74Z" transform="translate(-540.62 -230.2)"/><polygon class="cls-1" points="972.09 1832.45 885.58 1591.67 849.52 1491.33 615.02 838.63 515.6 561.88 515.54 561.73 566.99 543.24 590.45 534.82 613.89 526.4 665.35 507.91 665.41 508.05 998.57 1435.38 1034.71 1535.97 1121.89 1778.63 1121.75 1778.68 1046.92 1805.56 972.09 1832.45"/><polygon class="cls-1" points="1094.9 1939.12 1033.49 1885.79 972.08 1832.45 1046.92 1805.57 1121.76 1778.68 1108.33 1858.9 1094.9 1939.12"/><polygon class="cls-1" points="613.54 599.08 564.54 580.41 515.54 561.73 590.45 534.82 665.35 507.91 639.44 553.5 613.54 599.08"/><path class="cls-1" d="M1672.64,866.65a955.42,955.42,0,0,0-353.9,1.86l34.1,101.82c206.46-36.23,426.57,2.87,615.24,126.65,393.39,258.1,503.45,788.14,245.35,1181.52S1425.3,2782,1031.92,2523.85,528.46,1735.72,786.57,1342.33a848,848,0,0,1,301.64-279.12L1054,961a960.22,960.22,0,0,0-88.11,52.44C859.16,1084.87,769,1176,698,1284.23s-118.72,227.2-141.78,353.55A962.37,962.37,0,0,0,703,2344.54c71.46,106.72,162.57,196.84,270.82,267.86s227.19,118.73,353.54,141.79a962.37,962.37,0,0,0,706.76-146.77C2140.84,2536,2231,2444.84,2302,2336.59s118.73-227.18,141.79-353.53A962.37,962.37,0,0,0,2297,1276.3c-71.46-106.72-162.57-196.85-270.82-267.87S1799,889.71,1672.64,866.65Z" transform="translate(-540.62 -230.2)"/><path class="cls-1" d="M1132.28,1872.82c51-65.75,90.73-117.07,154.48-158.66,152.24-99.31,390.37-110,471.81-8.35,32.14,40.11,15.62,67.46,62.63,129.43,49.9,65.8,88,60.68,142,116.91,67,69.88,41.19,112.19,100.2,208.77,78.76,128.89,164.88,119.12,175.36,183.71,19.46,119.8-251.63,308.72-530.25,350.72-216.7,32.66-384.87-31.55-542.79-91.86-114.9-43.87-383.8-146.55-380-271.39,2.24-72.64,94.37-72.69,212.94-242.16C1061.11,2000.68,1057.68,1969.08,1132.28,1872.82Z" transform="translate(-540.62 -230.2)"/></svg>