<?xml version="1.0" encoding="utf-8"?>
<!-- Generator: Adobe Illustrator 22.0.0, SVG Export Plug-In . SVG Version: 6.00 Build 0)  -->
<svg version="1.1" id="Layer_1" xmlns="http://www.w3.org/2000/svg" xmlns:xlink="http://www.w3.org/1999/xlink" x="0px" y="0px"
	 viewBox="0 0 250 250" style="enable-background:new 0 0 250 250;" xml:space="preserve">
<style type="text/css">
	.st0{fill:#ffe151;}
</style>
<g id="seXlPL_1_">
	<g>
		<path class="st0" d="M157.9,82.2c-0.7-2.9-1.5-5.6,1.2-7.3c3.2-2.2,6.9-2.8,10.6-1.8c0.6,0.2,1.3,1.9,1.1,2.8
			c-1.6,9.8,0.1,19.3,2.4,28.8c0.4,1.5,1,2.9,1.8,4.2c5.2,9.1,11.3,17.9,15.4,27.5c3.4,8.1,9.2,11.8,16.6,14.1
			c4.9,1.5,10,2.4,14.9,3.8c3.1,0.9,5.9,2.4,9.2,3.8c-4.3,7.1-9.9,10.4-17.1,11.1c-11.7,1.2-22.4-2.5-32.8-7.3
			c-11.8-5.4-22.7-12.3-32.4-20.9c-15.4-13.5-31.7-25.6-49.5-35.8c-7-4-13.1-9.3-16.6-17c-1.2-2.6-1-4.6,0.2-7.2
			c4.6-9.8,12.6-16.1,21.4-21.7c1.5-1,3.4-1.5,5.2-1.7c3.4-0.4,5.2,1,5.4,4.4c0.9,15.3,17.6,23.4,31.6,19.5
			C151.9,80,152.6,80,157.9,82.2z"/>
		<path class="st0" d="M90,114.5c-2.6,0.5-3.9,4-7.5,1.8c-4.4-2.7-1.9-5.8-1.2-8.8c-0.4,0-0.7-0.1-0.8-0.1c-5.7,3.5-5.8,3.5-9.9-1.9
			c-0.8-1-1.5-2-2.1-3c-3.4-5.7-2.4-10.3,3.1-14.1c1.9-1.3,4.1-2.4,6.2-3.6C81,96.3,89.4,103,98.6,109c8.3,5.4,17,10.2,25,16
			c10.7,7.8,20.7,16.4,31.2,24.3c13.9,10.4,29.1,18.4,46.5,21.2c8.2,1.3,16.3,1.5,23.6-3.2c2.6-1.7,4.8-4.1,7-6.1
			c2.5,7.7-1.4,15.4-9.4,17.6c-2.7,0.7-5.5,1.1-8.2,1.4c-3.2,0.4-3.7-0.3-3.4-4.1c-1.7,1.1-3,2.2-4.5,2.9c-1.4,0.6-3.1,1.2-4.6,1.1
			c-3.7-0.2-4-0.7-3.5-4.9c-3.5,3.3-7.2,4.3-11,1.8c-0.8-0.5-0.6-2.5-0.9-4c-3.1,3.3-6.7,2.9-10.2,0.6c-0.8-0.5-0.7-2.2-1-3.6
			c-1.8,0.9-3.9,2.6-6.6,0.9c-2-1.3-5-1.6-3.4-5.3c-5.7,2.3-10.9-0.5-10.3-5.2c-4.6,2.2-9.9-1-9.7-5.7c-4.4,1.5-9.6-2.4-9-7.1
			c-2.6,2-4.5,0.5-6.5-0.8c-2.3-1.5-4.2-2.9-2.3-6.4c-2.8,2.3-4.9,1.6-7.5,0.1c-2.8-1.6-3.4-3.4-2-6.7c-3.5,4.2-6.5,1.9-8.9-0.2
			c-1.1-1-1-3.4-1.5-5.2c-2.5,2.8-5.4,1.8-8.3-0.5c-2.9-2.3,0.5-4.5-0.1-7c-2.9,1.9-5.4,4.6-9.1,1C87,119.1,90.4,117.1,90,114.5z"/>
		<path class="st0" d="M143.8,171.2c-41.5-8.3-83.1-16.7-124.8-25c0.8-3.2,1.6-6.1,2.4-9.3c40.9,11.3,81.8,22.5,122.6,33.7
			C143.8,170.7,143.8,171,143.8,171.2z"/>
		<path class="st0" d="M167.6,180.5c-38.2-3.2-76.4-6.3-115-9.6c0.1-2.8,0.2-5.5,0.4-8.6c38.5,5.9,76.6,11.7,114.7,17.5
			C167.6,180,167.6,180.3,167.6,180.5z"/>
		<path class="st0" d="M151.8,206c-0.2,0-0.3,0.1-0.5,0.1c0,0-0.1-0.1-0.1-0.2c0.2,0,0.3-0.1,0.5-0.1
			C151.7,205.9,151.7,206,151.8,206z"/>
	</g>
</g>
</svg>
